<mxfile host="app.diagrams.net" agent="Mozilla/5.0 (Windows NT 10.0; Win64; x64) AppleWebKit/537.36 (KHTML, like Gecko) Chrome/133.0.0.0 Safari/537.36 OPR/118.0.0.0" version="26.2.14">
  <diagram name="Page-1" id="dEOMz_1Q2bYMSHCnKqsL">
    <mxGraphModel dx="3913" dy="2690" grid="1" gridSize="10" guides="1" tooltips="1" connect="1" arrows="1" fold="1" page="1" pageScale="1" pageWidth="850" pageHeight="1100" math="0" shadow="0">
      <root>
        <mxCell id="0" />
        <mxCell id="1" parent="0" />
        <mxCell id="GSm-fKOxoH70OPwDlnBu-1" value="The main character must not be able to move through solid tiles" style="ellipse;whiteSpace=wrap;html=1;dashed=1;dashPattern=8 8;" vertex="1" parent="1">
          <mxGeometry x="1110" y="-710" width="120" height="80" as="geometry" />
        </mxCell>
        <mxCell id="GSm-fKOxoH70OPwDlnBu-2" value="Enemies must track and move toward the main character when within range" style="ellipse;whiteSpace=wrap;html=1;dashed=1;dashPattern=8 8;" vertex="1" parent="1">
          <mxGeometry x="1110" width="120" height="80" as="geometry" />
        </mxCell>
        <mxCell id="GSm-fKOxoH70OPwDlnBu-3" value="collection a coin must increase the player&#39;s score" style="ellipse;whiteSpace=wrap;html=1;dashed=1;dashPattern=8 8;" vertex="1" parent="1">
          <mxGeometry x="1110" y="790" width="120" height="80" as="geometry" />
        </mxCell>
        <mxCell id="GSm-fKOxoH70OPwDlnBu-4" value="Map must generate portals and borders correctly to define valid space" style="ellipse;whiteSpace=wrap;html=1;dashed=1;dashPattern=8 8;" vertex="1" parent="1">
          <mxGeometry x="1110" y="1830" width="120" height="80" as="geometry" />
        </mxCell>
        <mxCell id="GSm-fKOxoH70OPwDlnBu-5" value="world" style="rounded=0;whiteSpace=wrap;html=1;" vertex="1" parent="1">
          <mxGeometry x="280" y="-230" width="180" height="90" as="geometry" />
        </mxCell>
        <mxCell id="GSm-fKOxoH70OPwDlnBu-6" value="game loop" style="rounded=0;whiteSpace=wrap;html=1;" vertex="1" parent="1">
          <mxGeometry x="280" y="10" width="180" height="90" as="geometry" />
        </mxCell>
        <mxCell id="GSm-fKOxoH70OPwDlnBu-7" value="windows" style="rounded=0;whiteSpace=wrap;html=1;" vertex="1" parent="1">
          <mxGeometry x="280" y="220" width="180" height="90" as="geometry" />
        </mxCell>
        <mxCell id="GSm-fKOxoH70OPwDlnBu-8" value="sprite" style="rounded=0;whiteSpace=wrap;html=1;" vertex="1" parent="1">
          <mxGeometry x="280" y="410" width="180" height="90" as="geometry" />
        </mxCell>
        <mxCell id="GSm-fKOxoH70OPwDlnBu-14" value="Game Engine" style="rounded=0;whiteSpace=wrap;html=1;" vertex="1" parent="1">
          <mxGeometry x="-690" y="700" width="180" height="90" as="geometry" />
        </mxCell>
        <mxCell id="GSm-fKOxoH70OPwDlnBu-16" value="" style="endArrow=none;html=1;rounded=0;entryX=0.25;entryY=0;entryDx=0;entryDy=0;exitX=0.25;exitY=1;exitDx=0;exitDy=0;" edge="1" parent="1">
          <mxGeometry width="50" height="50" relative="1" as="geometry">
            <mxPoint x="-670" y="790" as="sourcePoint" />
            <mxPoint x="-670" y="700" as="targetPoint" />
          </mxGeometry>
        </mxCell>
        <mxCell id="GSm-fKOxoH70OPwDlnBu-17" value="" style="endArrow=none;html=1;rounded=0;entryX=0.25;entryY=0;entryDx=0;entryDy=0;exitX=0.25;exitY=1;exitDx=0;exitDy=0;" edge="1" parent="1">
          <mxGeometry width="50" height="50" relative="1" as="geometry">
            <mxPoint x="-680" y="790" as="sourcePoint" />
            <mxPoint x="-680" y="700" as="targetPoint" />
          </mxGeometry>
        </mxCell>
        <mxCell id="GSm-fKOxoH70OPwDlnBu-18" value="map generator" style="rounded=0;whiteSpace=wrap;html=1;" vertex="1" parent="1">
          <mxGeometry x="280" y="-480" width="180" height="90" as="geometry" />
        </mxCell>
        <mxCell id="GSm-fKOxoH70OPwDlnBu-19" value="button" style="rounded=0;whiteSpace=wrap;html=1;" vertex="1" parent="1">
          <mxGeometry x="280" y="630" width="180" height="90" as="geometry" />
        </mxCell>
        <mxCell id="GSm-fKOxoH70OPwDlnBu-20" value="character" style="rounded=0;whiteSpace=wrap;html=1;" vertex="1" parent="1">
          <mxGeometry x="280" y="800" width="180" height="90" as="geometry" />
        </mxCell>
        <mxCell id="GSm-fKOxoH70OPwDlnBu-21" value="coin" style="rounded=0;whiteSpace=wrap;html=1;" vertex="1" parent="1">
          <mxGeometry x="280" y="990" width="180" height="90" as="geometry" />
        </mxCell>
        <mxCell id="GSm-fKOxoH70OPwDlnBu-22" value="enemy" style="rounded=0;whiteSpace=wrap;html=1;" vertex="1" parent="1">
          <mxGeometry x="280" y="1260" width="180" height="90" as="geometry" />
        </mxCell>
        <mxCell id="GSm-fKOxoH70OPwDlnBu-23" value="main character" style="rounded=0;whiteSpace=wrap;html=1;" vertex="1" parent="1">
          <mxGeometry x="280" y="1500" width="180" height="90" as="geometry" />
        </mxCell>
        <mxCell id="GSm-fKOxoH70OPwDlnBu-24" value="" style="endArrow=none;html=1;rounded=0;entryX=0;entryY=0.5;entryDx=0;entryDy=0;exitX=1;exitY=0;exitDx=0;exitDy=0;" edge="1" parent="1" source="GSm-fKOxoH70OPwDlnBu-14" target="GSm-fKOxoH70OPwDlnBu-18">
          <mxGeometry width="50" height="50" relative="1" as="geometry">
            <mxPoint x="-50" y="160" as="sourcePoint" />
            <mxPoint y="110" as="targetPoint" />
          </mxGeometry>
        </mxCell>
        <mxCell id="GSm-fKOxoH70OPwDlnBu-25" value="" style="endArrow=none;html=1;rounded=0;entryX=0;entryY=0.5;entryDx=0;entryDy=0;exitX=1;exitY=0;exitDx=0;exitDy=0;" edge="1" parent="1" source="GSm-fKOxoH70OPwDlnBu-14" target="GSm-fKOxoH70OPwDlnBu-5">
          <mxGeometry width="50" height="50" relative="1" as="geometry">
            <mxPoint x="-130" y="280" as="sourcePoint" />
            <mxPoint x="290" y="-35" as="targetPoint" />
          </mxGeometry>
        </mxCell>
        <mxCell id="GSm-fKOxoH70OPwDlnBu-26" value="" style="endArrow=none;html=1;rounded=0;entryX=0;entryY=0.5;entryDx=0;entryDy=0;exitX=1;exitY=0;exitDx=0;exitDy=0;" edge="1" parent="1" source="GSm-fKOxoH70OPwDlnBu-14" target="GSm-fKOxoH70OPwDlnBu-6">
          <mxGeometry width="50" height="50" relative="1" as="geometry">
            <mxPoint x="-130" y="280" as="sourcePoint" />
            <mxPoint x="290" y="105" as="targetPoint" />
          </mxGeometry>
        </mxCell>
        <mxCell id="GSm-fKOxoH70OPwDlnBu-27" value="" style="endArrow=none;html=1;rounded=0;entryX=0;entryY=0.5;entryDx=0;entryDy=0;exitX=1;exitY=0;exitDx=0;exitDy=0;" edge="1" parent="1" source="GSm-fKOxoH70OPwDlnBu-14" target="GSm-fKOxoH70OPwDlnBu-7">
          <mxGeometry width="50" height="50" relative="1" as="geometry">
            <mxPoint x="-140" y="345" as="sourcePoint" />
            <mxPoint x="270" y="280" as="targetPoint" />
          </mxGeometry>
        </mxCell>
        <mxCell id="GSm-fKOxoH70OPwDlnBu-28" value="" style="endArrow=none;html=1;rounded=0;entryX=0;entryY=0.5;entryDx=0;entryDy=0;exitX=1;exitY=0;exitDx=0;exitDy=0;" edge="1" parent="1" source="GSm-fKOxoH70OPwDlnBu-14" target="GSm-fKOxoH70OPwDlnBu-8">
          <mxGeometry width="50" height="50" relative="1" as="geometry">
            <mxPoint x="-150" y="340" as="sourcePoint" />
            <mxPoint x="260" y="415" as="targetPoint" />
          </mxGeometry>
        </mxCell>
        <mxCell id="GSm-fKOxoH70OPwDlnBu-29" value="" style="endArrow=none;html=1;rounded=0;entryX=0;entryY=0.5;entryDx=0;entryDy=0;exitX=1;exitY=1;exitDx=0;exitDy=0;" edge="1" parent="1" source="GSm-fKOxoH70OPwDlnBu-14" target="GSm-fKOxoH70OPwDlnBu-19">
          <mxGeometry width="50" height="50" relative="1" as="geometry">
            <mxPoint x="-140" y="410" as="sourcePoint" />
            <mxPoint x="270" y="635" as="targetPoint" />
          </mxGeometry>
        </mxCell>
        <mxCell id="GSm-fKOxoH70OPwDlnBu-30" value="" style="endArrow=none;html=1;rounded=0;entryX=0;entryY=0.5;entryDx=0;entryDy=0;exitX=1;exitY=1;exitDx=0;exitDy=0;" edge="1" parent="1" source="GSm-fKOxoH70OPwDlnBu-14" target="GSm-fKOxoH70OPwDlnBu-20">
          <mxGeometry width="50" height="50" relative="1" as="geometry">
            <mxPoint x="-170" y="430" as="sourcePoint" />
            <mxPoint x="240" y="735" as="targetPoint" />
          </mxGeometry>
        </mxCell>
        <mxCell id="GSm-fKOxoH70OPwDlnBu-31" value="" style="endArrow=none;html=1;rounded=0;entryX=0;entryY=0.5;entryDx=0;entryDy=0;exitX=1;exitY=1;exitDx=0;exitDy=0;" edge="1" parent="1" source="GSm-fKOxoH70OPwDlnBu-14" target="GSm-fKOxoH70OPwDlnBu-21">
          <mxGeometry width="50" height="50" relative="1" as="geometry">
            <mxPoint x="-210" y="460" as="sourcePoint" />
            <mxPoint x="200" y="935" as="targetPoint" />
          </mxGeometry>
        </mxCell>
        <mxCell id="GSm-fKOxoH70OPwDlnBu-32" value="" style="endArrow=none;html=1;rounded=0;entryX=0;entryY=0.5;entryDx=0;entryDy=0;exitX=1;exitY=1;exitDx=0;exitDy=0;" edge="1" parent="1" source="GSm-fKOxoH70OPwDlnBu-14" target="GSm-fKOxoH70OPwDlnBu-22">
          <mxGeometry width="50" height="50" relative="1" as="geometry">
            <mxPoint x="-180" y="430" as="sourcePoint" />
            <mxPoint x="230" y="1095" as="targetPoint" />
          </mxGeometry>
        </mxCell>
        <mxCell id="GSm-fKOxoH70OPwDlnBu-33" value="" style="endArrow=none;html=1;rounded=0;exitX=1;exitY=1;exitDx=0;exitDy=0;entryX=0;entryY=0.5;entryDx=0;entryDy=0;" edge="1" parent="1" source="GSm-fKOxoH70OPwDlnBu-14" target="GSm-fKOxoH70OPwDlnBu-23">
          <mxGeometry width="50" height="50" relative="1" as="geometry">
            <mxPoint x="-120" y="380" as="sourcePoint" />
            <mxPoint x="10" y="1351.280029296875" as="targetPoint" />
          </mxGeometry>
        </mxCell>
        <mxCell id="GSm-fKOxoH70OPwDlnBu-35" value="" style="endArrow=none;dashed=1;html=1;rounded=0;exitX=1;exitY=0;exitDx=0;exitDy=0;entryX=0;entryY=0.5;entryDx=0;entryDy=0;" edge="1" parent="1" source="GSm-fKOxoH70OPwDlnBu-5" target="GSm-fKOxoH70OPwDlnBu-1">
          <mxGeometry width="50" height="50" relative="1" as="geometry">
            <mxPoint x="530" y="150" as="sourcePoint" />
            <mxPoint x="580" y="100" as="targetPoint" />
          </mxGeometry>
        </mxCell>
        <mxCell id="GSm-fKOxoH70OPwDlnBu-36" value="" style="endArrow=none;dashed=1;html=1;rounded=0;exitX=1;exitY=0;exitDx=0;exitDy=0;entryX=0;entryY=0.5;entryDx=0;entryDy=0;" edge="1" parent="1" source="GSm-fKOxoH70OPwDlnBu-8" target="GSm-fKOxoH70OPwDlnBu-1">
          <mxGeometry width="50" height="50" relative="1" as="geometry">
            <mxPoint x="470" y="450" as="sourcePoint" />
            <mxPoint x="520" y="400" as="targetPoint" />
          </mxGeometry>
        </mxCell>
        <mxCell id="GSm-fKOxoH70OPwDlnBu-37" value="" style="endArrow=none;dashed=1;html=1;rounded=0;exitX=1;exitY=0;exitDx=0;exitDy=0;entryX=0;entryY=0.5;entryDx=0;entryDy=0;" edge="1" parent="1" source="GSm-fKOxoH70OPwDlnBu-23" target="GSm-fKOxoH70OPwDlnBu-1">
          <mxGeometry width="50" height="50" relative="1" as="geometry">
            <mxPoint x="460" y="1350" as="sourcePoint" />
            <mxPoint x="580" y="90" as="targetPoint" />
          </mxGeometry>
        </mxCell>
        <mxCell id="GSm-fKOxoH70OPwDlnBu-38" value="" style="endArrow=none;dashed=1;html=1;rounded=0;exitX=1;exitY=0;exitDx=0;exitDy=0;entryX=0;entryY=0.5;entryDx=0;entryDy=0;" edge="1" parent="1" source="GSm-fKOxoH70OPwDlnBu-6" target="GSm-fKOxoH70OPwDlnBu-1">
          <mxGeometry width="50" height="50" relative="1" as="geometry">
            <mxPoint x="480" y="180" as="sourcePoint" />
            <mxPoint x="540" y="120" as="targetPoint" />
          </mxGeometry>
        </mxCell>
        <mxCell id="GSm-fKOxoH70OPwDlnBu-39" value="" style="endArrow=none;dashed=1;html=1;rounded=0;entryX=0;entryY=0.5;entryDx=0;entryDy=0;exitX=1;exitY=0.25;exitDx=0;exitDy=0;" edge="1" parent="1" source="GSm-fKOxoH70OPwDlnBu-23" target="GSm-fKOxoH70OPwDlnBu-2">
          <mxGeometry width="50" height="50" relative="1" as="geometry">
            <mxPoint x="540" y="1050" as="sourcePoint" />
            <mxPoint x="610" y="460" as="targetPoint" />
          </mxGeometry>
        </mxCell>
        <mxCell id="GSm-fKOxoH70OPwDlnBu-40" value="" style="endArrow=none;dashed=1;html=1;rounded=0;exitX=1;exitY=0.5;exitDx=0;exitDy=0;entryX=0;entryY=0.5;entryDx=0;entryDy=0;" edge="1" parent="1" source="GSm-fKOxoH70OPwDlnBu-6" target="GSm-fKOxoH70OPwDlnBu-48">
          <mxGeometry width="50" height="50" relative="1" as="geometry">
            <mxPoint x="620" y="170" as="sourcePoint" />
            <mxPoint x="680" y="110" as="targetPoint" />
          </mxGeometry>
        </mxCell>
        <mxCell id="GSm-fKOxoH70OPwDlnBu-41" value="" style="endArrow=none;dashed=1;html=1;rounded=0;exitX=1;exitY=0.75;exitDx=0;exitDy=0;entryX=0;entryY=0.5;entryDx=0;entryDy=0;" edge="1" parent="1" source="GSm-fKOxoH70OPwDlnBu-6" target="GSm-fKOxoH70OPwDlnBu-3">
          <mxGeometry width="50" height="50" relative="1" as="geometry">
            <mxPoint x="650" y="270" as="sourcePoint" />
            <mxPoint x="710" y="210" as="targetPoint" />
          </mxGeometry>
        </mxCell>
        <mxCell id="GSm-fKOxoH70OPwDlnBu-42" value="" style="endArrow=none;dashed=1;html=1;rounded=0;exitX=1;exitY=0;exitDx=0;exitDy=0;entryX=0;entryY=0.5;entryDx=0;entryDy=0;" edge="1" parent="1" source="GSm-fKOxoH70OPwDlnBu-20" target="GSm-fKOxoH70OPwDlnBu-2">
          <mxGeometry width="50" height="50" relative="1" as="geometry">
            <mxPoint x="470" y="730" as="sourcePoint" />
            <mxPoint x="590" y="430" as="targetPoint" />
          </mxGeometry>
        </mxCell>
        <mxCell id="GSm-fKOxoH70OPwDlnBu-43" value="" style="endArrow=none;dashed=1;html=1;rounded=0;exitX=1;exitY=0;exitDx=0;exitDy=0;entryX=0;entryY=0.5;entryDx=0;entryDy=0;" edge="1" parent="1" source="GSm-fKOxoH70OPwDlnBu-22" target="GSm-fKOxoH70OPwDlnBu-2">
          <mxGeometry width="50" height="50" relative="1" as="geometry">
            <mxPoint x="470" y="705" as="sourcePoint" />
            <mxPoint x="530" y="645" as="targetPoint" />
          </mxGeometry>
        </mxCell>
        <mxCell id="GSm-fKOxoH70OPwDlnBu-44" value="" style="endArrow=none;dashed=1;html=1;rounded=0;exitX=1;exitY=0.25;exitDx=0;exitDy=0;entryX=0;entryY=0.5;entryDx=0;entryDy=0;" edge="1" parent="1" source="GSm-fKOxoH70OPwDlnBu-6" target="GSm-fKOxoH70OPwDlnBu-2">
          <mxGeometry width="50" height="50" relative="1" as="geometry">
            <mxPoint x="480" y="210" as="sourcePoint" />
            <mxPoint x="540" y="150" as="targetPoint" />
          </mxGeometry>
        </mxCell>
        <mxCell id="GSm-fKOxoH70OPwDlnBu-45" value="" style="endArrow=none;dashed=1;html=1;rounded=0;exitX=1;exitY=0.25;exitDx=0;exitDy=0;entryX=0;entryY=0.5;entryDx=0;entryDy=0;" edge="1" parent="1" source="GSm-fKOxoH70OPwDlnBu-8" target="GSm-fKOxoH70OPwDlnBu-48">
          <mxGeometry width="50" height="50" relative="1" as="geometry">
            <mxPoint x="470" y="570" as="sourcePoint" />
            <mxPoint x="530" y="510" as="targetPoint" />
          </mxGeometry>
        </mxCell>
        <mxCell id="GSm-fKOxoH70OPwDlnBu-46" value="" style="endArrow=none;dashed=1;html=1;rounded=0;exitX=1;exitY=0.5;exitDx=0;exitDy=0;entryX=0;entryY=0.5;entryDx=0;entryDy=0;" edge="1" parent="1" source="GSm-fKOxoH70OPwDlnBu-23" target="GSm-fKOxoH70OPwDlnBu-48">
          <mxGeometry width="50" height="50" relative="1" as="geometry">
            <mxPoint x="590" y="920" as="sourcePoint" />
            <mxPoint x="650" y="860" as="targetPoint" />
          </mxGeometry>
        </mxCell>
        <mxCell id="GSm-fKOxoH70OPwDlnBu-47" value="" style="endArrow=none;dashed=1;html=1;rounded=0;exitX=1;exitY=0;exitDx=0;exitDy=0;entryX=0;entryY=0.5;entryDx=0;entryDy=0;" edge="1" parent="1" source="GSm-fKOxoH70OPwDlnBu-21" target="GSm-fKOxoH70OPwDlnBu-48">
          <mxGeometry width="50" height="50" relative="1" as="geometry">
            <mxPoint x="490" y="590" as="sourcePoint" />
            <mxPoint x="550" y="530" as="targetPoint" />
          </mxGeometry>
        </mxCell>
        <mxCell id="GSm-fKOxoH70OPwDlnBu-48" value="Coins must disappear when the main character collides with them" style="ellipse;whiteSpace=wrap;html=1;dashed=1;dashPattern=8 8;" vertex="1" parent="1">
          <mxGeometry x="1110" y="380" width="120" height="80" as="geometry" />
        </mxCell>
        <mxCell id="GSm-fKOxoH70OPwDlnBu-49" value="" style="endArrow=none;dashed=1;html=1;rounded=0;exitX=1;exitY=0;exitDx=0;exitDy=0;entryX=0;entryY=0.5;entryDx=0;entryDy=0;" edge="1" parent="1" source="GSm-fKOxoH70OPwDlnBu-59" target="GSm-fKOxoH70OPwDlnBu-60">
          <mxGeometry width="50" height="50" relative="1" as="geometry">
            <mxPoint x="520" y="1540" as="sourcePoint" />
            <mxPoint x="580" y="1480" as="targetPoint" />
          </mxGeometry>
        </mxCell>
        <mxCell id="GSm-fKOxoH70OPwDlnBu-50" value="" style="endArrow=none;dashed=1;html=1;rounded=0;exitX=1;exitY=0.75;exitDx=0;exitDy=0;entryX=0;entryY=0.5;entryDx=0;entryDy=0;" edge="1" parent="1" source="GSm-fKOxoH70OPwDlnBu-18" target="GSm-fKOxoH70OPwDlnBu-56">
          <mxGeometry width="50" height="50" relative="1" as="geometry">
            <mxPoint x="640" y="190" as="sourcePoint" />
            <mxPoint x="700" y="130" as="targetPoint" />
          </mxGeometry>
        </mxCell>
        <mxCell id="GSm-fKOxoH70OPwDlnBu-51" value="" style="endArrow=none;dashed=1;html=1;rounded=0;exitX=1.016;exitY=0.352;exitDx=0;exitDy=0;exitPerimeter=0;entryX=0;entryY=0.5;entryDx=0;entryDy=0;" edge="1" parent="1" source="GSm-fKOxoH70OPwDlnBu-21" target="GSm-fKOxoH70OPwDlnBu-3">
          <mxGeometry width="50" height="50" relative="1" as="geometry">
            <mxPoint x="620" y="770" as="sourcePoint" />
            <mxPoint x="680" y="710" as="targetPoint" />
          </mxGeometry>
        </mxCell>
        <mxCell id="GSm-fKOxoH70OPwDlnBu-52" value="" style="endArrow=none;dashed=1;html=1;rounded=0;exitX=1;exitY=0;exitDx=0;exitDy=0;entryX=0;entryY=0.5;entryDx=0;entryDy=0;" edge="1" parent="1" source="GSm-fKOxoH70OPwDlnBu-19" target="GSm-fKOxoH70OPwDlnBu-58">
          <mxGeometry width="50" height="50" relative="1" as="geometry">
            <mxPoint x="650" y="200" as="sourcePoint" />
            <mxPoint x="710" y="140" as="targetPoint" />
          </mxGeometry>
        </mxCell>
        <mxCell id="GSm-fKOxoH70OPwDlnBu-53" value="" style="endArrow=none;dashed=1;html=1;rounded=0;exitX=1;exitY=0.75;exitDx=0;exitDy=0;entryX=0;entryY=0.5;entryDx=0;entryDy=0;" edge="1" parent="1" source="GSm-fKOxoH70OPwDlnBu-23" target="GSm-fKOxoH70OPwDlnBu-3">
          <mxGeometry width="50" height="50" relative="1" as="geometry">
            <mxPoint x="630" y="870" as="sourcePoint" />
            <mxPoint x="690" y="810" as="targetPoint" />
          </mxGeometry>
        </mxCell>
        <mxCell id="GSm-fKOxoH70OPwDlnBu-54" value="player must be able to move the character using keyboard input" style="ellipse;whiteSpace=wrap;html=1;dashed=1;dashPattern=8 8;" vertex="1" parent="1">
          <mxGeometry x="1110" y="1300" width="120" height="80" as="geometry" />
        </mxCell>
        <mxCell id="GSm-fKOxoH70OPwDlnBu-55" value="The game window must run and update the display each frame at the specified FPS" style="ellipse;whiteSpace=wrap;html=1;dashed=1;dashPattern=8 8;" vertex="1" parent="1">
          <mxGeometry x="1110" y="-410" width="120" height="80" as="geometry" />
        </mxCell>
        <mxCell id="GSm-fKOxoH70OPwDlnBu-56" value="tile-based map must render with the correct textures based on map data" style="ellipse;whiteSpace=wrap;html=1;dashed=1;dashPattern=8 8;" vertex="1" parent="1">
          <mxGeometry x="1120" y="1540" width="120" height="80" as="geometry" />
        </mxCell>
        <mxCell id="GSm-fKOxoH70OPwDlnBu-58" value="UI buttons must respond to hover and clicks" style="ellipse;whiteSpace=wrap;html=1;dashed=1;dashPattern=8 8;" vertex="1" parent="1">
          <mxGeometry x="1110" y="1060" width="120" height="80" as="geometry" />
        </mxCell>
        <mxCell id="GSm-fKOxoH70OPwDlnBu-59" value="Portals" style="rounded=0;whiteSpace=wrap;html=1;" vertex="1" parent="1">
          <mxGeometry x="280" y="1830" width="180" height="90" as="geometry" />
        </mxCell>
        <mxCell id="GSm-fKOxoH70OPwDlnBu-60" value="When main character collides with portal a new map must load" style="ellipse;whiteSpace=wrap;html=1;dashed=1;dashPattern=8 8;" vertex="1" parent="1">
          <mxGeometry x="1110" y="2090" width="120" height="80" as="geometry" />
        </mxCell>
        <mxCell id="GSm-fKOxoH70OPwDlnBu-61" value="" style="endArrow=none;dashed=1;html=1;rounded=0;exitX=1;exitY=1;exitDx=0;exitDy=0;entryX=0;entryY=0.5;entryDx=0;entryDy=0;" edge="1" parent="1" source="GSm-fKOxoH70OPwDlnBu-18" target="GSm-fKOxoH70OPwDlnBu-4">
          <mxGeometry width="50" height="50" relative="1" as="geometry">
            <mxPoint x="510" y="1350" as="sourcePoint" />
            <mxPoint x="570" y="1290" as="targetPoint" />
          </mxGeometry>
        </mxCell>
        <mxCell id="GSm-fKOxoH70OPwDlnBu-62" value="" style="endArrow=none;dashed=1;html=1;rounded=0;exitX=0;exitY=0.5;exitDx=0;exitDy=0;entryX=1;entryY=0.75;entryDx=0;entryDy=0;" edge="1" parent="1" source="GSm-fKOxoH70OPwDlnBu-56" target="GSm-fKOxoH70OPwDlnBu-5">
          <mxGeometry width="50" height="50" relative="1" as="geometry">
            <mxPoint x="640" y="1040" as="sourcePoint" />
            <mxPoint x="700" y="980" as="targetPoint" />
          </mxGeometry>
        </mxCell>
        <mxCell id="GSm-fKOxoH70OPwDlnBu-63" value="" style="endArrow=none;dashed=1;html=1;rounded=0;exitX=1;exitY=1;exitDx=0;exitDy=0;entryX=0;entryY=0.5;entryDx=0;entryDy=0;" edge="1" parent="1" source="GSm-fKOxoH70OPwDlnBu-23" target="GSm-fKOxoH70OPwDlnBu-60">
          <mxGeometry width="50" height="50" relative="1" as="geometry">
            <mxPoint x="510" y="1410" as="sourcePoint" />
            <mxPoint x="550" y="1365" as="targetPoint" />
          </mxGeometry>
        </mxCell>
        <mxCell id="GSm-fKOxoH70OPwDlnBu-64" value="" style="endArrow=none;dashed=1;html=1;rounded=0;exitX=1;exitY=1;exitDx=0;exitDy=0;entryX=0;entryY=0.5;entryDx=0;entryDy=0;" edge="1" parent="1" source="GSm-fKOxoH70OPwDlnBu-6" target="GSm-fKOxoH70OPwDlnBu-60">
          <mxGeometry width="50" height="50" relative="1" as="geometry">
            <mxPoint x="660" y="210" as="sourcePoint" />
            <mxPoint x="720" y="150" as="targetPoint" />
          </mxGeometry>
        </mxCell>
        <mxCell id="GSm-fKOxoH70OPwDlnBu-65" value="" style="endArrow=none;dashed=1;html=1;rounded=0;exitX=1;exitY=0.25;exitDx=0;exitDy=0;entryX=0;entryY=0.5;entryDx=0;entryDy=0;" edge="1" parent="1" source="GSm-fKOxoH70OPwDlnBu-5" target="GSm-fKOxoH70OPwDlnBu-60">
          <mxGeometry width="50" height="50" relative="1" as="geometry">
            <mxPoint x="640" y="140" as="sourcePoint" />
            <mxPoint x="700" y="80" as="targetPoint" />
          </mxGeometry>
        </mxCell>
        <mxCell id="GSm-fKOxoH70OPwDlnBu-66" value="" style="endArrow=none;dashed=1;html=1;rounded=0;exitX=0;exitY=0.5;exitDx=0;exitDy=0;entryX=1;entryY=0.75;entryDx=0;entryDy=0;" edge="1" parent="1" source="GSm-fKOxoH70OPwDlnBu-54" target="GSm-fKOxoH70OPwDlnBu-23">
          <mxGeometry width="50" height="50" relative="1" as="geometry">
            <mxPoint x="760" y="1150" as="sourcePoint" />
            <mxPoint x="820" y="1090" as="targetPoint" />
          </mxGeometry>
        </mxCell>
        <mxCell id="GSm-fKOxoH70OPwDlnBu-67" value="" style="endArrow=none;dashed=1;html=1;rounded=0;exitX=0;exitY=0.5;exitDx=0;exitDy=0;entryX=1;entryY=1;entryDx=0;entryDy=0;" edge="1" parent="1" source="GSm-fKOxoH70OPwDlnBu-54" target="GSm-fKOxoH70OPwDlnBu-6">
          <mxGeometry width="50" height="50" relative="1" as="geometry">
            <mxPoint x="740" y="470" as="sourcePoint" />
            <mxPoint x="800" y="410" as="targetPoint" />
          </mxGeometry>
        </mxCell>
        <mxCell id="GSm-fKOxoH70OPwDlnBu-68" value="" style="endArrow=none;dashed=1;html=1;rounded=0;entryX=0;entryY=0.5;entryDx=0;entryDy=0;exitX=1;exitY=0.5;exitDx=0;exitDy=0;" edge="1" parent="1" source="GSm-fKOxoH70OPwDlnBu-5" target="GSm-fKOxoH70OPwDlnBu-4">
          <mxGeometry width="50" height="50" relative="1" as="geometry">
            <mxPoint x="520" y="-45" as="sourcePoint" />
            <mxPoint x="620" y="1530" as="targetPoint" />
          </mxGeometry>
        </mxCell>
        <mxCell id="GSm-fKOxoH70OPwDlnBu-69" value="" style="endArrow=none;dashed=1;html=1;rounded=0;entryX=0;entryY=0.5;entryDx=0;entryDy=0;exitX=1;exitY=0.5;exitDx=0;exitDy=0;" edge="1" parent="1" source="GSm-fKOxoH70OPwDlnBu-8" target="GSm-fKOxoH70OPwDlnBu-56">
          <mxGeometry width="50" height="50" relative="1" as="geometry">
            <mxPoint x="600" y="850" as="sourcePoint" />
            <mxPoint x="620" y="1530" as="targetPoint" />
          </mxGeometry>
        </mxCell>
        <mxCell id="GSm-fKOxoH70OPwDlnBu-70" value="" style="endArrow=none;dashed=1;html=1;rounded=0;exitX=1;exitY=1;exitDx=0;exitDy=0;entryX=0;entryY=0.5;entryDx=0;entryDy=0;" edge="1" parent="1" source="GSm-fKOxoH70OPwDlnBu-7" target="GSm-fKOxoH70OPwDlnBu-58">
          <mxGeometry width="50" height="50" relative="1" as="geometry">
            <mxPoint x="750" y="860" as="sourcePoint" />
            <mxPoint x="810" y="800" as="targetPoint" />
          </mxGeometry>
        </mxCell>
        <mxCell id="GSm-fKOxoH70OPwDlnBu-71" value="" style="endArrow=none;dashed=1;html=1;rounded=0;exitX=0;exitY=0.5;exitDx=0;exitDy=0;entryX=1;entryY=0.5;entryDx=0;entryDy=0;" edge="1" parent="1" source="GSm-fKOxoH70OPwDlnBu-55" target="GSm-fKOxoH70OPwDlnBu-7">
          <mxGeometry width="50" height="50" relative="1" as="geometry">
            <mxPoint x="770" y="500" as="sourcePoint" />
            <mxPoint x="830" y="440" as="targetPoint" />
          </mxGeometry>
        </mxCell>
        <mxCell id="GSm-fKOxoH70OPwDlnBu-72" value="" style="endArrow=none;dashed=1;html=1;rounded=0;exitX=1;exitY=0.25;exitDx=0;exitDy=0;entryX=0;entryY=0.5;entryDx=0;entryDy=0;" edge="1" parent="1" source="GSm-fKOxoH70OPwDlnBu-6" target="GSm-fKOxoH70OPwDlnBu-55">
          <mxGeometry width="50" height="50" relative="1" as="geometry">
            <mxPoint x="660" y="210" as="sourcePoint" />
            <mxPoint x="720" y="150" as="targetPoint" />
          </mxGeometry>
        </mxCell>
        <mxCell id="GSm-fKOxoH70OPwDlnBu-73" value="" style="endArrow=none;dashed=1;html=1;rounded=0;exitX=1;exitY=0.75;exitDx=0;exitDy=0;entryX=0;entryY=0.5;entryDx=0;entryDy=0;" edge="1" parent="1" source="GSm-fKOxoH70OPwDlnBu-8" target="GSm-fKOxoH70OPwDlnBu-55">
          <mxGeometry width="50" height="50" relative="1" as="geometry">
            <mxPoint x="670" y="220" as="sourcePoint" />
            <mxPoint x="730" y="160" as="targetPoint" />
          </mxGeometry>
        </mxCell>
        <mxCell id="GSm-fKOxoH70OPwDlnBu-74" value="" style="endArrow=none;dashed=1;html=1;rounded=0;exitX=1;exitY=0.75;exitDx=0;exitDy=0;entryX=0;entryY=0.5;entryDx=0;entryDy=0;" edge="1" parent="1" source="GSm-fKOxoH70OPwDlnBu-6" target="GSm-fKOxoH70OPwDlnBu-58">
          <mxGeometry width="50" height="50" relative="1" as="geometry">
            <mxPoint x="680" y="230" as="sourcePoint" />
            <mxPoint x="740" y="170" as="targetPoint" />
          </mxGeometry>
        </mxCell>
        <mxCell id="GSm-fKOxoH70OPwDlnBu-75" value="" style="endArrow=none;html=1;rounded=0;exitX=1;exitY=1;exitDx=0;exitDy=0;entryX=0;entryY=0;entryDx=0;entryDy=0;" edge="1" parent="1" source="GSm-fKOxoH70OPwDlnBu-14" target="GSm-fKOxoH70OPwDlnBu-59">
          <mxGeometry width="50" height="50" relative="1" as="geometry">
            <mxPoint x="-120" y="380" as="sourcePoint" />
            <mxPoint x="290" y="1405" as="targetPoint" />
          </mxGeometry>
        </mxCell>
        <mxCell id="GSm-fKOxoH70OPwDlnBu-79" value="" style="endArrow=none;html=1;rounded=0;entryX=0.25;entryY=0;entryDx=0;entryDy=0;exitX=0.25;exitY=1;exitDx=0;exitDy=0;" edge="1" parent="1">
          <mxGeometry width="50" height="50" relative="1" as="geometry">
            <mxPoint x="300" y="720" as="sourcePoint" />
            <mxPoint x="300" y="630" as="targetPoint" />
          </mxGeometry>
        </mxCell>
        <mxCell id="GSm-fKOxoH70OPwDlnBu-80" value="" style="endArrow=none;html=1;rounded=0;entryX=0.25;entryY=0;entryDx=0;entryDy=0;exitX=0.25;exitY=1;exitDx=0;exitDy=0;" edge="1" parent="1">
          <mxGeometry width="50" height="50" relative="1" as="geometry">
            <mxPoint x="300" y="-140" as="sourcePoint" />
            <mxPoint x="300" y="-230" as="targetPoint" />
          </mxGeometry>
        </mxCell>
        <mxCell id="GSm-fKOxoH70OPwDlnBu-81" value="" style="endArrow=none;html=1;rounded=0;entryX=0.25;entryY=0;entryDx=0;entryDy=0;exitX=0.25;exitY=1;exitDx=0;exitDy=0;" edge="1" parent="1">
          <mxGeometry width="50" height="50" relative="1" as="geometry">
            <mxPoint x="300" y="-390" as="sourcePoint" />
            <mxPoint x="300" y="-480" as="targetPoint" />
          </mxGeometry>
        </mxCell>
        <mxCell id="GSm-fKOxoH70OPwDlnBu-82" value="" style="endArrow=none;html=1;rounded=0;entryX=0.25;entryY=0;entryDx=0;entryDy=0;exitX=0.25;exitY=1;exitDx=0;exitDy=0;" edge="1" parent="1">
          <mxGeometry width="50" height="50" relative="1" as="geometry">
            <mxPoint x="300" y="310" as="sourcePoint" />
            <mxPoint x="300" y="220" as="targetPoint" />
          </mxGeometry>
        </mxCell>
        <mxCell id="GSm-fKOxoH70OPwDlnBu-83" value="" style="endArrow=none;html=1;rounded=0;entryX=0.25;entryY=0;entryDx=0;entryDy=0;exitX=0.25;exitY=1;exitDx=0;exitDy=0;" edge="1" parent="1">
          <mxGeometry width="50" height="50" relative="1" as="geometry">
            <mxPoint x="300" y="500" as="sourcePoint" />
            <mxPoint x="300" y="410" as="targetPoint" />
          </mxGeometry>
        </mxCell>
      </root>
    </mxGraphModel>
  </diagram>
</mxfile>
